<svg id="Icons" enable-background="new 0 0 512 512" height="30px" viewBox="0 0 512 512" width="30px" xmlns="http://www.w3.org/2000/svg" xmlns:xlink="http://www.w3.org/1999/xlink"><linearGradient id="SVGID_1_" gradientUnits="userSpaceOnUse" x1="256" x2="256" y1="512" y2="0"><stop offset="0" stop-color="#22b7eb"/><stop offset="1" stop-color="#1e74bb"/></linearGradient><linearGradient id="SVGID_2_" gradientUnits="userSpaceOnUse" x1="256" x2="256" y1="512" y2="256"><stop offset="0" stop-color="#22b7eb"/><stop offset=".8346" stop-color="#1e74bb"/></linearGradient><linearGradient id="SVGID_3_" gradientUnits="userSpaceOnUse" x1="256" x2="256" y1="413.979" y2="98.021"><stop offset="0" stop-color="#263886"/><stop offset="1" stop-color="#0e203a"/></linearGradient><linearGradient id="SVGID_4_" gradientUnits="userSpaceOnUse" x1="266" x2="266" y1="356.429" y2="155.571"><stop offset="0" stop-color="#fff"/><stop offset=".2013" stop-color="#f3f9f9"/><stop offset=".6958" stop-color="#dbecee"/><stop offset="1" stop-color="#d2e7ea"/></linearGradient><g><circle cx="256" cy="256" fill="url(#SVGID_1_)" r="256"/><path d="m413.979 256h-315.958l29.747 221.606c37.707 21.867 81.505 34.394 128.232 34.394s90.525-12.527 128.232-34.394z" fill="url(#SVGID_2_)"/><circle cx="256" cy="256" fill="url(#SVGID_3_)" r="157.979"/><path d="m225.786 356.429c-5.119 0-10.237-1.953-14.142-5.858-7.811-7.811-7.811-20.474 0-28.284l66.286-66.287-66.287-66.287c-7.811-7.811-7.811-20.474 0-28.284s20.474-7.811 28.284 0l80.429 80.429c7.811 7.811 7.811 20.474 0 28.284l-80.429 80.429c-3.905 3.905-9.023 5.858-14.141 5.858z" fill="url(#SVGID_4_)"/></g></svg>