<?xml version="1.0" standalone="no"?>
<!DOCTYPE svg PUBLIC "-//W3C//DTD SVG 20010904//EN"
 "http://www.w3.org/TR/2001/REC-SVG-20010904/DTD/svg10.dtd">
<svg version="1.0" xmlns="http://www.w3.org/2000/svg"
 width="800.000000pt" height="800.000000pt" viewBox="0 0 800.000000 800.000000"
 preserveAspectRatio="xMidYMid meet">
<metadata>
Created by potrace 1.11, written by Peter Selinger 2001-2013
</metadata>
<g transform="translate(0.000000,800.000000) scale(0.100000,-0.100000)"
fill="#000000" stroke="none">
<path d="M3783 6825 c-257 -33 -477 -98 -709 -210 -276 -133 -503 -300 -701
-517 -493 -538 -688 -1302 -513 -2015 65 -269 194 -545 353 -762 26 -35 47
-67 47 -71 0 -13 -158 39 -231 75 -115 58 -220 148 -327 280 -31 39 -60 72
-63 75 -11 8 -301 444 -307 460 -3 8 -9 17 -13 20 -3 3 -16 20 -27 39 l-20 34
-38 -59 c-66 -102 -121 -216 -153 -312 -17 -52 -29 -97 -26 -102 3 -5 1 -11
-4 -14 -16 -10 -34 -169 -33 -301 2 -407 157 -680 476 -835 190 -93 378 -130
654 -131 l167 0 -30 -25 c-16 -14 -57 -46 -90 -71 -93 -71 -255 -205 -319
-264 -106 -97 -276 -325 -260 -351 4 -6 3 -8 -3 -5 -13 8 -78 -117 -68 -133 5
-8 4 -11 -2 -7 -11 7 -16 -2 -68 -117 -34 -77 -44 -106 -25 -76 5 8 12 11 17
7 4 -4 2 -17 -5 -27 -7 -11 -8 -20 -4 -20 5 0 46 73 91 163 78 156 161 302
161 283 0 -11 -74 -222 -100 -286 -10 -25 -31 -79 -46 -120 -14 -41 -39 -101
-55 -132 -31 -63 -35 -118 -7 -118 9 0 19 -3 21 -7 3 -5 -19 -6 -49 -5 -59 4
-139 -20 -153 -46 -11 -19 -1 -46 34 -102 51 -81 130 -102 201 -54 72 48 81
65 158 296 122 367 248 641 384 833 70 98 251 282 312 318 58 33 261 108 568
209 133 44 242 81 242 83 0 2 -15 1 -32 -1 -24 -4 -48 2 -90 24 -31 17 -55 32
-52 35 2 2 -16 12 -41 22 -25 11 -45 23 -45 27 0 4 -6 8 -14 8 -8 0 -28 11
-44 25 -17 14 -35 25 -41 25 -6 0 -11 4 -11 10 0 5 -11 12 -25 16 -14 3 -25
10 -25 15 0 5 -7 9 -15 9 -8 0 -20 9 -27 20 -7 11 -19 20 -26 20 -7 0 -11 4
-7 10 3 5 -9 17 -27 26 -89 46 -278 258 -270 302 2 9 6 47 9 84 6 74 2 80 -87
147 -17 13 -43 42 -57 65 -14 22 -59 74 -99 114 -81 81 -100 122 -89 197 9 53
-7 106 -45 148 -47 55 -59 90 -66 193 -4 63 -15 125 -30 171 -13 39 -24 88
-24 108 0 20 -6 48 -14 63 -19 38 -31 82 -16 62 8 -11 10 3 8 55 -2 69 14 196
32 265 6 19 12 53 14 75 6 53 26 134 43 165 7 14 13 35 13 48 0 12 4 22 9 22
5 0 12 18 16 40 4 22 11 40 16 40 4 0 6 7 3 15 -4 8 1 17 10 21 9 3 13 10 10
16 -4 5 7 7 28 4 41 -8 56 4 92 71 32 59 44 66 84 52 15 -5 39 -8 52 -7 21 3
26 -3 35 -42 11 -51 21 -70 37 -70 10 0 8 36 -8 102 -6 26 -5 27 30 21 41 -6
43 -1 21 50 -21 52 -19 67 10 67 18 0 32 -12 56 -47 36 -54 56 -73 77 -73 12
0 13 11 8 60 -6 54 -5 61 15 77 54 44 59 52 59 103 0 46 3 52 35 72 55 36 56
61 5 92 -33 19 -42 62 -15 72 21 9 85 -15 85 -32 0 -21 9 -17 40 16 35 37 45
37 64 3 l14 -27 21 34 c11 19 21 40 21 47 0 6 18 33 41 59 22 25 47 63 55 83
9 23 32 48 64 70 88 59 129 189 65 205 -13 3 -29 4 -37 2 -7 -2 -26 -7 -43
-10 -22 -5 -26 -4 -15 4 8 5 25 10 38 10 12 0 25 6 28 13 2 7 14 14 27 14 12
1 23 6 25 12 3 10 57 -13 85 -37 9 -9 17 -29 17 -47 0 -23 5 -34 18 -37 29 -8
41 2 48 37 7 38 37 75 61 75 9 0 25 -8 36 -17 18 -17 19 -17 33 2 13 17 12 31
-3 71 -5 13 22 43 66 74 24 17 36 20 39 12 2 -8 8 -10 15 -4 7 6 32 12 57 16
128 17 226 25 238 21 6 -2 12 0 12 5 0 13 182 13 286 1 43 -6 132 -15 197 -22
64 -6 117 -15 117 -20 0 -4 9 -6 20 -4 11 2 22 0 25 -5 3 -4 24 -11 48 -15 82
-14 147 -65 147 -116 0 -17 10 -38 25 -53 14 -14 25 -32 25 -41 0 -14 -8 -16
-49 -10 -62 8 -76 -8 -36 -42 25 -22 26 -27 15 -48 -8 -15 -10 -36 -4 -66 4
-24 7 -60 6 -79 -2 -27 4 -42 27 -67 21 -24 29 -41 28 -68 -1 -25 -3 -31 -9
-20 -12 21 -38 19 -38 -2 0 -15 2 -16 10 -3 9 15 11 13 14 -12 0 -7 14 -19 29
-26 15 -7 33 -22 40 -33 6 -10 22 -19 34 -19 21 0 83 -53 83 -71 0 -5 -7 -9
-17 -9 -15 0 -15 -1 0 -18 10 -10 17 -28 17 -40 0 -13 6 -22 15 -22 11 0 15
-11 15 -40 0 -22 5 -40 10 -40 6 0 10 -73 10 -200 0 -127 -4 -200 -10 -200 -5
0 -10 -18 -10 -41 0 -42 -40 -109 -64 -109 -7 0 -21 -6 -31 -14 -18 -13 -18
-14 10 -10 17 2 22 1 13 -2 -28 -9 -21 -27 7 -20 14 4 25 2 25 -3 0 -12 -54
-22 -58 -10 -3 6 -10 5 -18 -2 -11 -9 -14 -8 -15 7 -1 11 -1 22 -1 25 1 3 -5
6 -12 6 -7 0 -13 -12 -13 -26 0 -34 -25 -119 -30 -105 -3 9 -10 9 -28 0 -27
-12 -33 -25 -12 -27 26 -2 -40 -17 -80 -18 -30 -1 -45 4 -52 17 -6 9 -11 13
-11 8 0 -5 7 -18 17 -28 11 -12 12 -18 3 -18 -8 0 -11 -9 -8 -25 3 -14 2 -25
-3 -25 -4 0 -9 15 -11 33 -3 29 -6 32 -38 33 -26 1 -28 1 -7 -3 20 -3 27 -10
27 -26 0 -32 12 -45 41 -45 34 1 79 -30 79 -53 0 -24 -24 -36 -107 -53 -37 -8
-88 -24 -113 -35 -62 -28 -105 -27 -136 4 -26 26 -26 44 2 113 11 26 19 32 46
33 46 2 60 0 85 -13 18 -9 20 -15 13 -34 -11 -28 5 -32 35 -10 18 13 18 14 -3
27 -24 15 -29 48 -10 67 6 6 9 15 5 18 -4 4 -12 -6 -19 -23 -11 -25 -17 -28
-38 -22 -37 10 -103 -1 -118 -20 -11 -14 -14 -14 -22 -1 -14 23 -12 30 8 23
15 -6 15 -5 3 10 -21 26 -34 20 -29 -13 3 -17 0 -34 -5 -37 -6 -3 -7 -1 -3 5
5 8 -5 12 -33 12 -39 0 -41 2 -41 30 0 28 -2 30 -40 30 -22 0 -40 5 -40 10 0
6 -18 10 -41 10 -30 0 -51 8 -78 28 -20 16 -55 37 -78 48 -45 20 -55 39 -25
48 9 3 5 4 -10 2 -16 -2 -28 1 -28 5 0 5 24 10 53 11 50 1 50 2 10 5 -24 2
-43 9 -43 15 0 6 17 8 48 5 l47 -6 -55 15 c-30 8 -76 16 -102 17 -25 1 -43 4
-39 7 4 3 2 20 -5 39 -11 34 -29 29 -19 -6 3 -10 -1 -4 -9 12 -12 26 -12 30 0
33 8 2 12 8 8 13 -9 16 -34 -11 -34 -37 0 -50 -17 -72 -76 -94 -56 -21 -94
-51 -94 -75 0 -7 -10 -25 -22 -40 -20 -26 -24 -27 -85 -22 -59 6 -64 5 -79
-18 -13 -20 -15 -38 -10 -88 6 -55 4 -66 -14 -90 -20 -25 -27 -27 -91 -27 -87
0 -104 -15 -114 -95 -9 -71 3 -100 52 -122 21 -10 48 -26 60 -37 20 -17 27
-18 60 -8 29 9 61 38 133 118 130 145 188 170 281 120 206 -110 210 -113 224
-173 9 -42 23 -42 27 0 2 23 8 32 21 31 9 -1 17 0 17 2 0 7 -53 55 -78 71 -56
35 -102 75 -102 89 0 27 44 25 111 -5 62 -28 66 -32 93 -92 16 -35 41 -82 57
-105 30 -44 87 -78 112 -68 18 7 13 24 -20 74 -14 19 -23 45 -21 60 3 23 8 25
54 28 48 3 52 1 58 -23 4 -14 11 -25 16 -25 6 0 10 -7 10 -16 0 -9 14 -29 31
-45 36 -34 89 -39 159 -14 51 18 102 19 118 3 7 -7 12 -28 12 -48 0 -42 -21
-66 -90 -100 -24 -13 -56 -31 -70 -42 -24 -18 -34 -18 -146 -8 -65 5 -137 13
-159 16 -36 5 -42 3 -52 -18 -7 -12 -13 -34 -15 -48 -3 -23 -7 -25 -51 -23
-36 1 -64 11 -115 42 -37 22 -79 44 -93 50 -19 7 -33 25 -49 64 -12 29 -32 60
-44 68 -15 10 -66 14 -186 16 -144 2 -172 0 -218 -17 -29 -11 -76 -20 -105
-20 -69 -1 -90 -14 -140 -90 -31 -47 -56 -72 -97 -96 -56 -32 -106 -81 -150
-144 -13 -19 -27 -37 -32 -40 -4 -3 -17 -27 -28 -53 -16 -36 -21 -68 -21 -131
0 -94 10 -126 68 -213 22 -32 51 -79 66 -105 15 -26 33 -53 40 -60 7 -7 28
-34 46 -59 38 -54 65 -69 127 -69 24 0 86 -9 137 -21 87 -19 96 -19 154 -5 82
21 84 21 129 -15 38 -30 41 -31 107 -24 46 4 73 3 82 -5 22 -19 29 -77 15
-138 -11 -51 -11 -56 6 -65 11 -6 54 -45 98 -87 64 -63 80 -84 85 -116 6 -34
10 -39 31 -37 239 24 290 24 794 -6 82 -5 154 -7 161 -5 31 12 45 62 45 166 0
153 28 230 104 293 25 20 57 58 72 83 14 26 46 67 69 92 52 54 75 117 82 222
5 62 2 82 -11 103 -22 33 -36 32 -86 -10 -27 -22 -52 -35 -71 -35 -16 0 -32 0
-36 -1 -5 0 -10 10 -13 23 -3 12 -16 28 -29 34 l-23 12 21 11 c11 7 50 20 85
31 47 15 73 30 95 55 17 20 31 39 31 43 0 11 67 76 118 114 37 28 48 44 67
103 12 39 26 84 29 101 9 43 -6 79 -35 81 -27 2 -59 36 -59 62 0 25 20 41 50
41 14 0 52 16 85 35 79 48 94 50 154 25 48 -21 52 -21 76 -6 13 9 26 16 29 16
2 0 10 -25 16 -55 15 -74 88 -172 147 -199 23 -11 46 -30 52 -43 23 -49 97
-16 107 48 5 28 0 47 -20 81 -19 33 -26 59 -26 96 0 28 -7 70 -16 93 -16 39
-16 42 7 90 21 46 22 53 10 97 -22 75 -24 98 -11 122 11 20 13 21 36 5 14 -9
29 -13 35 -9 20 12 66 -44 67 -82 1 -20 5 -41 10 -48 5 -6 12 -19 16 -30 5
-14 2 -17 -9 -12 -9 3 -15 0 -15 -9 0 -8 7 -15 15 -15 8 0 15 -5 15 -11 0 -5
5 -7 12 -3 7 4 8 3 4 -4 -4 -6 -12 -9 -19 -7 -9 4 -12 -29 -13 -132 0 -103 -6
-165 -22 -245 -13 -58 -22 -110 -20 -115 1 -4 -6 -33 -15 -63 -10 -30 -19 -62
-21 -70 -7 -45 -74 -227 -91 -250 -18 -23 -45 -86 -45 -104 0 -9 -4 -16 -10
-16 -5 0 -24 -28 -41 -62 -18 -35 -42 -77 -55 -94 -13 -17 -24 -36 -24 -42 0
-7 -5 -12 -11 -12 -5 0 -8 -4 -4 -10 3 -5 -6 -17 -20 -26 -14 -9 -25 -23 -25
-30 0 -8 -4 -14 -10 -14 -5 0 -10 -5 -10 -11 0 -10 -39 -57 -87 -104 -13 -12
-23 -27 -23 -34 0 -6 -4 -11 -9 -11 -12 0 -71 -59 -71 -71 0 -5 -7 -9 -15 -9
-8 0 -15 -5 -15 -11 0 -11 -24 -39 -34 -39 -3 0 -22 -18 -42 -40 -20 -22 -42
-40 -50 -40 -7 0 -31 -19 -54 -42 -33 -34 -40 -38 -41 -23 0 12 -5 7 -10 -13
-9 -30 -11 -31 -25 -17 -13 12 -14 19 -4 30 15 19 9 121 -9 138 -10 9 -19 5
-43 -23 -17 -19 -64 -70 -106 -112 l-75 -78 68 0 c38 0 94 5 124 10 31 6 111
20 179 31 140 22 255 57 457 136 274 109 432 203 568 340 99 100 146 168 186
268 68 169 164 547 211 825 11 69 23 139 26 155 4 23 3 26 -5 15 -6 -8 -11
-28 -11 -44 0 -16 -7 -38 -16 -48 -14 -14 -14 -20 -4 -33 9 -11 10 -18 1 -28
-6 -8 -12 -30 -13 -50 -2 -19 -7 -35 -12 -34 -5 1 -12 -9 -16 -23 -6 -23 -7
-21 -13 14 -3 21 -2 47 4 58 6 10 8 24 5 31 -3 9 -5 9 -5 0 -1 -17 -41 17 -41
34 0 19 18 16 23 -4 3 -13 5 -14 6 -3 0 8 -4 22 -9 30 -9 13 -11 13 -20 0 -6
-8 -8 -23 -6 -32 2 -9 -2 -19 -10 -22 -17 -6 -61 -76 -70 -110 -3 -14 -10 -26
-15 -26 -5 0 -9 2 -9 4 0 10 56 111 62 114 5 2 5 8 2 14 -4 6 -3 13 2 17 5 3
18 22 28 41 38 71 132 215 154 237 12 12 22 32 21 45 l0 23 -10 -24 c-6 -15
-14 -21 -25 -17 -9 3 -12 2 -9 -4 4 -6 -6 -26 -22 -44 -15 -18 -42 -51 -60
-72 -18 -21 -44 -52 -58 -69 -14 -16 -25 -33 -25 -37 0 -4 -7 -5 -15 -1 -9 3
-15 1 -13 -4 2 -5 -13 -28 -33 -51 -27 -31 -42 -41 -55 -36 -15 5 -16 4 -4 -5
16 -11 8 -27 -9 -16 -19 11 -12 30 29 89 22 31 50 76 61 98 16 32 23 38 31 27
7 -10 8 -8 3 9 -3 12 -2 22 3 22 5 0 12 8 15 18 3 9 16 33 28 52 l23 35 -35
-31 c-19 -17 -54 -49 -79 -71 -68 -62 -119 -101 -142 -109 -48 -15 -38 18 65
196 85 148 168 284 334 541 l93 146 11 113 c6 61 8 114 6 117 -3 2 -12 -6 -21
-19 -35 -48 -300 -403 -305 -408 -3 -3 -38 -45 -76 -94 -39 -48 -86 -107 -105
-130 -19 -23 -46 -57 -59 -74 -13 -17 -28 -29 -32 -26 -22 13 -6 176 32 329
24 94 149 461 189 550 4 11 22 54 38 95 17 41 69 170 117 285 96 234 155 383
155 393 -1 8 -24 -30 -25 -38 0 -6 -51 -120 -93 -210 -15 -30 -48 -92 -74
-138 -26 -46 -48 -86 -48 -89 0 -13 -128 -213 -208 -328 -86 -122 -226 -300
-291 -367 l-35 -38 -19 43 c-10 23 -33 74 -50 112 -55 124 -207 357 -305 470
-367 423 -834 689 -1375 786 -158 28 -496 35 -664 14z m-719 -425 c29 -10 34
-37 14 -73 -6 -12 -50 -64 -97 -114 -60 -66 -88 -90 -96 -82 -7 7 -4 15 10 27
19 17 55 66 55 77 0 10 -28 5 -32 -7 -3 -7 -12 -9 -22 -5 -12 5 -16 15 -14 34
3 26 6 28 60 31 70 4 91 23 57 52 -31 25 -40 25 -100 -5 -78 -40 -91 -57 -93
-128 -1 -53 -4 -62 -21 -65 -56 -8 -72 -18 -136 -82 -64 -65 -89 -82 -89 -62
0 14 94 121 152 172 38 34 58 60 60 78 2 15 6 26 11 24 4 -1 21 14 38 33 18
20 53 45 80 56 30 13 46 26 42 33 -4 6 1 5 10 -3 15 -12 17 -12 11 3 -5 13 1
16 34 16 23 0 52 -4 66 -10z m736 -1270 c0 -5 -4 -10 -10 -10 -5 0 -10 5 -10
10 0 6 5 10 10 10 6 0 10 -4 10 -10z m1145 -119 c-7 -54 7 -96 30 -87 8 3 12
0 9 -7 -2 -7 15 -24 39 -39 51 -32 82 -65 92 -95 6 -21 3 -23 -37 -23 -55 0
-78 16 -117 82 -17 29 -43 69 -57 88 -18 25 -24 45 -23 76 2 24 6 41 11 38 4
-3 16 0 25 5 31 18 35 12 28 -38z m45 -56 c0 -7 -30 -13 -34 -7 -3 4 4 9 15 9
10 1 19 0 19 -2z m-60 -90 c0 -5 -5 -3 -10 5 -5 8 -10 20 -10 25 0 6 5 3 10
-5 5 -8 10 -19 10 -25z m-33 -7 c-3 -7 -5 -2 -5 12 0 14 2 19 5 13 2 -7 2 -19
0 -25z m-557 -43 c0 -8 -4 -15 -10 -15 -5 0 -7 7 -4 15 4 8 8 15 10 15 2 0 4
-7 4 -15z m192 -7 c-7 -7 -12 -8 -12 -2 0 6 3 14 7 17 3 4 9 5 12 2 2 -3 -1
-11 -7 -17z m-194 -112 c-7 -8 -15 -12 -17 -11 -5 6 10 25 20 25 5 0 4 -6 -3
-14z m808 -239 c22 -8 65 -17 98 -21 74 -8 96 -20 96 -51 0 -19 -6 -25 -22
-26 -54 -4 -96 4 -143 25 -27 12 -62 28 -77 34 -27 11 -36 31 -21 45 10 10 26
9 69 -6z m1444 -18 c0 -5 -4 -9 -10 -9 -5 0 -18 -10 -30 -22 -22 -24 -27 -13
-6 14 7 10 17 14 21 10 5 -4 5 1 2 10 -4 12 -2 15 9 11 7 -3 14 -9 14 -14z
m247 -91 c-3 -7 -5 -2 -5 12 0 14 2 19 5 13 2 -7 2 -19 0 -25z m-2052 -112
c28 -18 55 -76 54 -113 -1 -26 -2 -25 -8 7 -4 19 -13 44 -21 56 -18 29 -71 47
-117 38 -21 -4 -31 -9 -23 -12 8 -2 31 -11 50 -20 19 -8 39 -14 43 -13 5 1 6
-3 2 -9 -4 -6 1 -23 11 -38 18 -27 20 -32 23 -53 0 -6 8 -9 15 -6 10 4 13 1
10 -7 -6 -15 29 -42 93 -71 34 -16 48 -31 70 -75 16 -30 31 -56 36 -58 7 -4
10 -62 2 -62 -8 0 -98 51 -144 82 -35 23 -46 27 -53 16 -6 -9 -7 -6 -3 9 3 12
1 24 -5 28 -5 3 -10 21 -10 39 0 19 -6 39 -13 45 -20 16 -77 26 -77 13 0 -5
-9 -8 -20 -5 -22 6 -17 25 5 21 23 -5 19 16 -6 29 -13 7 -20 13 -16 13 4 0 -4
12 -18 27 -14 15 -25 31 -25 34 0 4 -6 9 -14 12 -11 5 -12 -1 -1 -38 8 -24 11
-45 8 -48 -2 -3 5 -8 16 -12 13 -4 21 -15 21 -28 0 -19 -3 -18 -34 12 -37 36
-49 72 -35 108 6 17 4 31 -7 48 l-16 24 39 -6 c21 -3 34 -2 30 3 -12 13 53 34
87 28 17 -2 40 -11 51 -18z m-1760 -30 c12 -12 12 -16 -1 -27 -14 -12 -14 -14
2 -26 22 -16 10 -17 -16 -1 -18 11 -18 14 -3 30 14 16 15 18 0 18 -8 0 -17 -6
-20 -12 -2 -7 -8 -10 -12 -5 -5 4 0 14 11 22 24 18 23 18 39 1z m-55 -40 c0
-2 -7 -7 -16 -10 -8 -3 -12 -2 -9 4 6 10 25 14 25 6z m933 -73 c-13 -2 -33 -2
-45 0 -13 2 -3 4 22 4 25 0 35 -2 23 -4z m-2733 -85 c-23 -35 -23 -31 -1 15 8
15 16 25 19 22 2 -2 -5 -19 -18 -37z m3274 26 c18 -17 22 -64 6 -64 -5 0 -10
14 -10 30 0 24 -4 30 -21 30 -20 0 -21 -3 -17 -135 1 -74 0 -127 -4 -117 -12
31 -9 247 4 260 16 16 23 15 42 -4z m-3257 -56 c-3 -8 -6 -5 -6 6 -1 11 2 17
5 13 3 -3 4 -12 1 -19z m2140 -20 c8 -9 10 -18 5 -22 -13 -8 -45 42 -36 56 6
9 9 8 12 -2 3 -8 11 -22 19 -32z m23 32 c0 -5 -2 -10 -4 -10 -3 0 -8 5 -11 10
-3 6 -1 10 4 10 6 0 11 -4 11 -10z m36 -28 c-4 -3 -11 0 -16 8 -15 24 -11 33
6 15 9 -9 13 -19 10 -23z m24 28 c0 -5 -2 -10 -4 -10 -3 0 -8 5 -11 10 -3 6
-1 10 4 10 6 0 11 -4 11 -10z m185 0 c-3 -5 -14 -10 -23 -10 -15 0 -15 2 -2
10 20 13 33 13 25 0z m118 -14 c-15 -13 -30 -22 -33 -19 -5 5 41 42 53 43 4 0
-5 -11 -20 -24z m172 14 c3 -6 -1 -7 -9 -4 -18 7 -21 14 -7 14 6 0 13 -4 16
-10z m-622 -32 c38 -27 34 -55 -18 -110 -47 -51 -65 -57 -86 -32 -11 14 -10
21 4 46 21 37 15 48 -13 23 -12 -11 -20 -31 -20 -51 0 -46 29 -64 105 -64 74
0 90 -9 81 -44 -6 -25 -8 -26 -89 -26 -92 0 -112 9 -146 64 -37 60 -23 159 27
192 30 20 89 33 112 26 8 -3 27 -14 43 -24z m573 17 c25 -10 41 -12 54 -5 28
15 83 12 108 -6 39 -27 52 -66 52 -162 0 -70 -4 -92 -16 -103 -11 -9 -20 -10
-32 -2 -13 8 -18 29 -20 94 -3 94 -19 126 -53 108 -16 -8 -19 -22 -19 -87 0
-85 -13 -117 -46 -110 -16 3 -19 13 -22 78 -3 109 -7 120 -41 120 -36 0 -41
-13 -41 -103 0 -83 -8 -100 -41 -95 -23 3 -24 6 -27 98 -3 131 19 172 106 189
1 1 19 -6 38 -14z m-842 -1 c27 -10 20 -53 -9 -60 -40 -10 -55 -41 -55 -115 0
-79 -6 -99 -30 -99 -35 0 -38 17 -32 176 3 68 69 120 126 98z m565 -10 c45
-27 55 -52 59 -155 4 -85 2 -97 -13 -103 -10 -3 -26 -4 -36 -1 -16 5 -19 17
-19 78 0 86 -16 117 -60 117 -61 0 -80 -93 -24 -119 14 -6 31 -11 39 -11 15 0
23 -25 17 -52 -6 -26 -72 -24 -107 4 -73 58 -71 202 4 243 35 19 107 19 140
-1z m776 -18 c0 -26 -5 -31 -40 -40 -37 -11 -40 -14 -43 -51 -7 -115 -35 -154
-106 -151 -37 1 -41 4 -44 29 -3 28 0 30 51 41 25 6 27 10 27 56 0 57 13 96
43 128 17 19 30 22 67 20 42 -3 45 -5 45 -32z m208 27 c-13 -2 -35 -2 -50 0
-16 2 -5 4 22 4 28 0 40 -2 28 -4z m-1173 -36 c0 -5 -4 -5 -10 -2 -5 3 -10 14
-10 23 0 15 2 15 10 2 5 -8 10 -19 10 -23z m1230 -8 c-9 -16 -20 -19 -73 -17
l-62 2 63 3 c54 4 62 6 62 24 0 11 5 17 10 14 7 -4 7 -13 0 -26z m-960 -19 c0
-5 -4 -10 -10 -10 -5 0 -10 5 -10 10 0 6 5 10 10 10 6 0 10 -4 10 -10z m17
-12 c-3 -8 -6 -5 -6 6 -1 11 2 17 5 13 3 -3 4 -12 1 -19z m801 -31 c-1 -74 8
-95 40 -100 l27 -4 -27 -2 c-21 -1 -31 6 -41 27 -16 32 -22 132 -8 132 5 0 9
-24 9 -53z m-3351 1 c-3 -8 -6 -5 -6 6 -1 11 2 17 5 13 3 -3 4 -12 1 -19z
m2390 6 c-3 -3 -12 -4 -19 -1 -8 3 -5 6 6 6 11 1 17 -2 13 -5z m33 -14 c0 -5
-5 -10 -11 -10 -5 0 -7 5 -4 10 3 6 8 10 11 10 2 0 4 -4 4 -10z m-2437 -25
c-3 -9 -8 -14 -10 -11 -3 3 -2 9 2 15 9 16 15 13 8 -4z m3504 -27 c-3 -8 -6
-5 -6 6 -1 11 2 17 5 13 3 -3 4 -12 1 -19z m-3500 -20 c-3 -8 -6 -5 -6 6 -1
11 2 17 5 13 3 -3 4 -12 1 -19z m3416 -85 c-7 -2 -21 -2 -30 0 -10 3 -4 5 12
5 17 0 24 -2 18 -5z m1927 -78 c0 -2 -10 -9 -22 -15 -22 -11 -22 -10 -4 4 21
17 26 19 26 11z m-50 -30 c0 -6 -76 -45 -87 -45 -4 1 12 12 37 25 50 27 50 27
50 20z m-100 -52 c0 -11 -81 -56 -88 -49 -3 3 1 6 9 6 12 0 11 2 -1 11 -12 8
-10 9 8 4 16 -5 22 -3 20 7 -2 8 4 12 15 10 9 -2 17 2 17 8 0 5 5 10 10 10 6
0 10 -3 10 -7z m-151 -57 c-14 -12 -69 -35 -69 -28 0 4 12 13 28 19 28 11 48
16 41 9z m-9 -31 c-25 -13 -49 -24 -55 -24 -5 0 10 11 35 24 25 13 50 24 55
24 6 0 -10 -11 -35 -24z m-73 -1 c-3 -3 -12 -4 -19 -1 -8 3 -5 6 6 6 11 1 17
-2 13 -5z m-41 -26 c-9 -5 -14 -13 -11 -17 2 -5 -4 -11 -15 -14 -18 -5 -18 -4
2 24 12 15 26 26 31 22 5 -3 2 -10 -7 -15z m34 -8 c-8 -5 -19 -10 -25 -10 -5
0 -3 5 5 10 8 5 20 10 25 10 6 0 3 -5 -5 -10z m-4950 -290 c0 -11 -4 -20 -9
-20 -5 0 -7 9 -4 20 3 11 7 20 9 20 2 0 4 -9 4 -20z m1457 -356 c-3 -3 -12 -4
-19 -1 -8 3 -5 6 6 6 11 1 17 -2 13 -5z m-1047 -1272 c0 -15 -2 -15 -10 -2
-13 20 -13 33 0 25 6 -3 10 -14 10 -23z m-25 -36 c0 -15 -4 -21 -9 -16 -5 5
-6 16 -3 24 9 22 12 20 12 -8z"/>
<path d="M4611 4094 c0 -11 3 -14 6 -6 3 7 2 16 -1 19 -3 4 -6 -2 -5 -13z"/>
<path d="M3112 3930 c-57 -56 -48 -153 18 -198 29 -19 46 -23 102 -21 63 2 68
4 68 24 0 21 -5 22 -71 23 -83 1 -106 15 -115 73 -9 54 34 96 94 90 18 -2 15
-13 -13 -43 -27 -29 -33 -58 -12 -58 7 0 33 21 56 47 l43 48 -27 22 c-40 35
-105 32 -143 -7z"/>
<path d="M3900 3954 c-26 -11 -40 -13 -52 -5 -33 21 -82 13 -110 -16 -22 -24
-26 -40 -30 -108 -6 -84 -1 -108 20 -112 9 -2 12 19 12 80 0 96 14 127 59 127
44 0 56 -23 58 -117 1 -45 5 -83 8 -83 3 0 10 0 15 0 6 0 10 36 10 88 0 95 8
112 50 112 49 0 55 -12 58 -115 3 -73 7 -95 18 -95 21 0 23 165 2 203 -5 10
-13 15 -18 12 -6 -3 -7 0 -4 8 3 10 -5 18 -27 26 -18 6 -32 11 -33 11 -1 -1
-17 -8 -36 -16z"/>
<path d="M2942 3959 c-50 -19 -57 -36 -57 -143 0 -83 3 -101 15 -101 12 0 16
19 20 88 4 78 8 91 29 108 12 10 27 16 32 13 5 -3 9 4 9 14 0 25 -18 32 -48
21z"/>
<path d="M3413 3923 c-33 -35 -35 -40 -31 -93 3 -41 10 -62 26 -78 27 -27 70
-45 89 -38 24 10 13 32 -23 45 -84 30 -75 161 11 161 59 0 77 -26 83 -118 3
-56 9 -82 18 -86 24 -9 19 151 -6 192 -16 26 -25 32 -43 28 -12 -3 -16 -3 -9
0 23 11 1 24 -40 24 -34 0 -46 -6 -75 -37z"/>
<path d="M4263 3963 c-40 -8 -63 -49 -63 -112 0 -66 -13 -89 -55 -93 -22 -2
-30 -8 -30 -23 0 -16 7 -20 37 -21 57 -3 81 30 86 116 5 75 11 86 57 92 22 2
30 8 30 23 0 21 -20 27 -62 18z"/>
<path d="M4593 6385 c-7 -8 -13 -26 -13 -40 0 -20 5 -25 23 -25 29 0 60 32 55
57 -4 23 -48 28 -65 8z"/>
<path d="M3230 6327 c-38 -30 -50 -61 -50 -133 l0 -71 -48 -20 c-38 -16 -52
-29 -72 -69 -14 -27 -36 -54 -50 -61 -14 -6 -43 -20 -65 -31 -32 -15 -46 -31
-72 -83 -17 -35 -34 -85 -38 -110 -6 -40 -4 -50 17 -74 30 -34 50 -26 93 35
29 42 30 42 80 37 44 -4 54 -1 83 24 41 36 63 36 104 0 67 -58 98 -49 143 40
27 53 41 66 75 71 18 2 32 17 50 52 15 27 41 62 59 78 27 24 38 28 67 22 30
-5 34 -4 34 15 0 11 -11 28 -25 37 -14 9 -28 28 -31 43 -9 35 -23 51 -45 51
-24 0 -59 38 -52 56 7 19 -15 44 -39 44 -10 0 -45 14 -78 30 -62 31 -114 38
-140 17z"/>
<path d="M4522 6067 c-28 -29 -29 -54 -2 -27 11 11 20 25 20 31 0 6 9 9 20 6
11 -3 18 -1 14 4 -9 15 -30 10 -52 -14z"/>
<path d="M4556 6056 c4 -11 2 -21 -7 -27 -10 -6 -11 -9 -1 -9 18 0 27 29 13
43 -9 9 -11 8 -5 -7z"/>
<path d="M4680 6020 c0 -5 7 -10 16 -10 8 0 12 -4 9 -10 -3 -6 1 -7 10 -4 12
5 13 9 4 20 -13 16 -39 19 -39 4z"/>
<path d="M3904 6002 c4 -8 2 -10 -8 -6 -20 8 -30 -30 -15 -58 16 -32 50 -68
64 -68 21 0 79 56 66 64 -7 5 -10 2 -9 -6 2 -7 -5 -12 -14 -12 -10 1 -16 -2
-13 -6 8 -12 -21 -31 -37 -25 -19 8 -55 72 -45 81 4 4 7 0 7 -9 0 -9 5 -19 11
-23 8 -4 9 1 4 17 -7 22 -7 22 9 6 21 -21 26 -21 54 -1 27 19 29 44 3 44 -10
0 -33 3 -51 7 -24 4 -31 3 -26 -5z"/>
<path d="M4015 5989 c4 -6 13 -8 21 -5 19 7 18 -8 -1 -24 -10 -9 -15 -9 -15
-1 0 6 -5 11 -11 11 -8 0 -7 -5 1 -15 12 -14 15 -14 32 2 23 20 19 35 -11 40
-14 2 -20 -1 -16 -8z"/>
<path d="M4535 5989 c-4 -6 -5 -12 -2 -15 2 -3 7 2 10 11 7 17 1 20 -8 4z"/>
<path d="M4472 5960 c0 -14 2 -19 5 -12 2 6 2 18 0 25 -3 6 -5 1 -5 -13z"/>
<path d="M3930 5910 c0 -6 7 -10 15 -10 8 0 15 2 15 4 0 2 -7 6 -15 10 -8 3
-15 1 -15 -4z"/>
<path d="M4690 5890 l-25 -21 28 12 c15 7 27 16 27 21 0 11 -1 10 -30 -12z"/>
<path d="M4518 5868 c5 -5 16 -8 23 -6 8 3 3 7 -10 11 -17 4 -21 3 -13 -5z"/>
<path d="M4066 5693 c-6 -14 -5 -15 5 -6 7 7 10 15 7 18 -3 3 -9 -2 -12 -12z"/>
<path d="M3237 5633 c-12 -12 -7 -36 11 -50 51 -41 60 -45 81 -33 27 14 27 44
-1 70 -21 19 -77 28 -91 13z"/>
<path d="M3919 5569 l-24 -20 28 17 c15 9 27 18 27 20 0 8 -8 4 -31 -17z"/>
<path d="M3880 5534 c0 -1 6 -7 14 -13 10 -9 15 -8 19 2 3 8 -3 13 -14 13 -11
0 -19 -1 -19 -2z"/>
<path d="M3860 5504 c0 -8 5 -12 10 -9 6 4 8 11 5 16 -9 14 -15 11 -15 -7z"/>
<path d="M3836 5473 c-6 -14 -5 -15 5 -6 7 7 10 15 7 18 -3 3 -9 -2 -12 -12z"/>
<path d="M3810 5446 c0 -2 7 -7 16 -10 8 -3 12 -2 9 4 -6 10 -25 14 -25 6z"/>
<path d="M3775 5428 c-11 -6 -27 -14 -35 -18 -8 -4 -21 -20 -29 -35 -13 -27
-12 -30 13 -52 15 -13 33 -23 40 -23 8 0 19 -13 26 -30 16 -38 36 -55 46 -39
4 7 3 9 -4 5 -13 -8 -26 10 -16 25 4 8 9 7 15 -2 6 -10 8 -7 6 9 -1 13 -5 18
-11 12 -12 -12 -67 46 -72 77 -4 19 0 23 20 23 13 0 29 7 36 15 11 13 8 13
-19 4 -40 -14 -53 -4 -17 12 14 7 26 16 26 21 0 10 0 10 -25 -4z m-29 -55 c0
-10 -5 -21 -11 -25 -6 -5 -6 -8 1 -8 7 0 15 -7 18 -15 5 -13 1 -12 -18 2 -19
15 -22 22 -13 40 12 27 25 30 23 6z"/>
<path d="M3775 5360 c-8 -12 33 -49 54 -50 10 0 7 8 -9 25 -25 27 -21 31 13
14 21 -10 21 -10 3 5 -23 18 -52 21 -61 6z"/>
<path d="M3460 5311 c-13 -25 -13 -58 0 -66 18 -11 11 -54 -20 -132 -39 -97
-39 -113 0 -113 38 0 86 24 100 49 15 28 12 67 -5 81 -12 10 -14 27 -9 79 5
58 4 69 -16 94 -25 32 -36 34 -50 8z"/>
<path d="M3996 5297 c3 -10 9 -15 12 -12 3 3 0 11 -7 18 -10 9 -11 8 -5 -6z"/>
<path d="M3971 5214 c0 -11 3 -14 6 -6 3 7 2 16 -1 19 -3 4 -6 -2 -5 -13z"/>
<path d="M3340 5188 c-24 -26 -49 -104 -42 -131 4 -17 6 -17 23 -1 24 22 80
134 73 145 -9 16 -33 10 -54 -13z"/>
<path d="M3867 5186 c34 -22 46 -24 68 -16 22 8 24 12 13 24 -8 9 -17 11 -24
5 -6 -5 -15 -5 -20 -1 -4 4 -2 -1 5 -10 16 -21 -1 -24 -21 -4 -8 7 -25 17 -38
20 -16 5 -10 -2 17 -18z"/>
<path d="M4067 5137 c-3 -8 1 -14 8 -14 7 0 11 6 8 14 -3 7 -6 13 -8 13 -2 0
-5 -6 -8 -13z"/>
<path d="M4558 4948 c6 -6 18 -8 28 -6 14 3 12 5 -9 10 -19 3 -25 2 -19 -4z"/>
<path d="M4500 4915 c-7 -9 -8 -15 -2 -15 5 0 12 7 16 15 3 8 4 15 2 15 -2 0
-9 -7 -16 -15z"/>
<path d="M3742 4593 c2 -27 8 -39 21 -41 20 -4 22 16 5 53 -17 37 -30 31 -26
-12z"/>
<path d="M6690 4609 c-7 -11 -10 -23 -7 -25 2 -2 9 7 15 21 14 30 7 33 -8 4z"/>
<path d="M3877 4532 c-23 -26 -21 -40 8 -54 33 -15 78 13 73 45 -4 30 -57 36
-81 9z"/>
<path d="M6622 4520 c-15 -24 -15 -30 -2 -30 6 0 10 7 10 15 0 8 5 15 10 15 6
0 10 5 10 10 0 16 -14 11 -28 -10z"/>
<path d="M6817 4506 c-4 -10 -1 -13 9 -9 15 6 19 23 5 23 -5 0 -11 -7 -14 -14z"/>
<path d="M6830 4461 c0 -11 -4 -23 -10 -26 -5 -3 -9 -14 -9 -23 1 -15 2 -15 6
1 2 9 8 17 13 17 4 0 10 11 12 25 3 14 1 25 -3 25 -5 0 -9 -9 -9 -19z"/>
<path d="M4291 4416 c-16 -19 -11 -29 8 -17 7 5 12 14 9 21 -3 9 -8 7 -17 -4z"/>
<path d="M2441 3284 c0 -11 3 -14 6 -6 3 7 2 16 -1 19 -3 4 -6 -2 -5 -13z"/>
<path d="M6089 2753 c-13 -16 -12 -17 4 -4 9 7 17 15 17 17 0 8 -8 3 -21 -13z"/>
<path d="M6009 2683 l-24 -28 28 24 c15 14 27 26 27 28 0 8 -8 1 -31 -24z"/>
<path d="M3578 2673 c6 -2 18 -2 25 0 6 3 1 5 -13 5 -14 0 -19 -2 -12 -5z"/>
<path d="M3453 2653 c9 -2 25 -2 35 0 9 3 1 5 -18 5 -19 0 -27 -2 -17 -5z"/>
<path d="M3398 2643 c7 -3 16 -2 19 1 4 3 -2 6 -13 5 -11 0 -14 -3 -6 -6z"/>
<path d="M5940 2630 c-9 -6 -10 -10 -3 -10 6 0 15 5 18 10 8 12 4 12 -15 0z"/>
<path d="M2715 2468 c-81 -25 -198 -48 -246 -48 -21 0 -39 -4 -39 -9 0 -14
185 -185 267 -247 195 -147 367 -223 625 -275 148 -30 154 -30 188 -13 l35 17
-70 12 c-178 32 -387 146 -531 289 -108 109 -146 169 -162 256 l-7 36 -60 -18z"/>
<path d="M3581 2334 c0 -11 3 -14 6 -6 3 7 2 16 -1 19 -3 4 -6 -2 -5 -13z"/>
<path d="M3611 2124 c0 -11 3 -14 6 -6 3 7 2 16 -1 19 -3 4 -6 -2 -5 -13z"/>
<path d="M3621 2044 c0 -11 3 -14 6 -6 3 7 2 16 -1 19 -3 4 -6 -2 -5 -13z"/>
<path d="M5040 2040 c-9 -6 -10 -10 -3 -10 6 0 15 5 18 10 8 12 4 12 -15 0z"/>
<path d="M3870 2020 c-13 -11 -19 -20 -13 -20 5 0 18 9 28 20 10 11 16 20 13
20 -3 0 -15 -9 -28 -20z"/>
<path d="M3901 2010 c-9 -5 -4 -7 13 -7 29 0 32 2 13 10 -8 3 -20 2 -26 -3z"/>
<path d="M3814 1968 l-19 -23 23 19 c12 11 22 21 22 23 0 8 -8 2 -26 -19z"/>
<path d="M3605 1950 c-3 -6 1 -7 9 -4 18 7 21 14 7 14 -6 0 -13 -4 -16 -10z"/>
<path d="M4168 1933 c6 -2 18 -2 25 0 6 3 1 5 -13 5 -14 0 -19 -2 -12 -5z"/>
<path d="M4438 1913 c7 -3 16 -2 19 1 4 3 -2 6 -13 5 -11 0 -14 -3 -6 -6z"/>
<path d="M4518 1913 c7 -3 16 -2 19 1 4 3 -2 6 -13 5 -11 0 -14 -3 -6 -6z"/>
<path d="M4605 1899 c-31 -16 -53 -19 -100 -14 -58 5 -59 4 -31 -10 25 -13 35
-13 90 0 33 9 73 17 89 20 15 2 35 9 45 15 15 10 15 11 -3 7 -11 -3 -29 -8
-39 -13 -14 -5 -17 -4 -12 4 9 15 10 15 -39 -9z"/>
<path d="M3711 1880 c-23 -17 -39 -35 -36 -40 3 -6 31 -10 62 -10 70 0 65 10
-5 11 l-50 2 28 23 c15 13 33 24 39 24 6 0 11 5 11 10 0 14 -2 13 -49 -20z"/>
<path d="M4518 1893 c7 -3 16 -2 19 1 4 3 -2 6 -13 5 -11 0 -14 -3 -6 -6z"/>
<path d="M3730 1860 c0 -5 5 -10 10 -10 6 0 10 5 10 10 0 6 -4 10 -10 10 -5 0
-10 -4 -10 -10z"/>
<path d="M4410 1860 c8 -5 29 -10 45 -10 23 0 27 3 15 10 -8 5 -28 10 -45 10
-23 0 -27 -3 -15 -10z"/>
<path d="M4270 1840 l-55 -7 55 -1 c30 0 75 3 100 7 l45 8 -45 0 c-25 0 -70
-3 -100 -7z"/>
<path d="M3903 1823 c59 -2 154 -2 210 0 56 1 8 3 -108 3 -115 0 -161 -2 -102
-3z"/>
<path d="M1426 1395 c-9 -26 -7 -32 5 -12 6 10 9 21 6 23 -2 3 -7 -2 -11 -11z"/>
<path d="M1390 1301 c0 -6 4 -13 10 -16 6 -3 7 1 4 9 -7 18 -14 21 -14 7z"/>
<path d="M1378 1255 c-3 -14 -1 -25 3 -25 5 0 9 11 9 25 0 14 -2 25 -4 25 -2
0 -6 -11 -8 -25z"/>
</g>
</svg>
